<?xml version="1.0" standalone="no"?>
<!DOCTYPE svg PUBLIC "-//W3C//DTD SVG 20010904//EN"
 "http://www.w3.org/TR/2001/REC-SVG-20010904/DTD/svg10.dtd">
<svg version="1.0" xmlns="http://www.w3.org/2000/svg"
 width="1000.000000pt" height="1000.000000pt" viewBox="0 0 1000.000000 1000.000000"
 preserveAspectRatio="xMidYMid meet">
<metadata>
Created by potrace 1.11, written by Peter Selinger 2001-2013
</metadata>
<g transform="translate(0.000000,1000.000000) scale(0.100000,-0.100000)"
fill="#000000" stroke="none">
<path d="M1865 9989 c-477 -49 -912 -257 -1254 -600 -348 -347 -551 -777 -601
-1268 -14 -143 -14 -6099 0 -6242 50 -491 253 -921 601 -1268 347 -348 777
-551 1268 -601 143 -14 6099 -14 6242 0 491 50 921 253 1268 601 348 347 551
777 601 1268 14 143 14 6099 0 6242 -50 491 -253 921 -601 1268 -347 348 -777
551 -1268 601 -125 12 -6134 12 -6256 -1z m3149 -2998 c517 -104 959 -425
1212 -881 26 -47 49 -87 51 -89 1 -2 38 12 80 32 331 155 672 195 1031 121
206 -42 451 -154 622 -282 517 -390 756 -1031 616 -1652 -141 -624 -636 -1104
-1269 -1232 l-112 -23 -2620 0 -2620 0 -85 28 c-284 95 -487 309 -561 592 -30
112 -30 288 0 400 71 272 272 491 529 581 l67 23 48 92 c165 319 450 543 787
620 141 32 140 31 140 83 0 76 38 270 76 388 128 398 378 722 736 956 195 126
436 216 693 257 134 21 437 14 579 -14z"/>
<path d="M4481 6434 c-428 -72 -793 -389 -929 -810 -66 -202 -72 -376 -24
-704 16 -113 28 -206 27 -208 -2 -2 -95 13 -206 33 -303 54 -397 50 -554 -25
-136 -65 -254 -192 -305 -328 -16 -43 -80 -311 -80 -335 0 -2 -66 -2 -148 1
-136 4 -151 3 -200 -18 -57 -25 -115 -82 -140 -139 -19 -46 -20 -146 0 -192
24 -55 78 -110 133 -135 l50 -24 2523 0 c2507 0 2525 0 2625 21 249 50 452
174 610 369 81 101 167 269 197 385 122 484 -97 976 -535 1199 -350 177 -764
147 -1082 -80 -35 -25 -156 -134 -269 -242 -114 -108 -210 -198 -214 -200 -3
-1 -30 113 -59 255 -61 304 -97 426 -159 547 -146 283 -422 513 -722 599 -162
47 -373 59 -539 31z"/>
</g>
</svg>
